G04 (created by PCBNEW (2013-07-07 BZR 4022)-stable) date 25/7/2559 14:55:53*
%MOIN*%
G04 Gerber Fmt 3.4, Leading zero omitted, Abs format*
%FSLAX34Y34*%
G01*
G70*
G90*
G04 APERTURE LIST*
%ADD10C,0.00590551*%
%ADD11C,0.1*%
%ADD12C,0.1575*%
%ADD13C,0.04*%
%ADD14C,0.024*%
%ADD15C,0.015*%
G04 APERTURE END LIST*
G54D10*
G54D11*
X53600Y-33800D03*
X51600Y-33800D03*
X55600Y-33800D03*
X49600Y-33800D03*
X47600Y-33800D03*
X53600Y-43800D03*
X55600Y-43800D03*
X57600Y-43800D03*
X59600Y-43800D03*
X61600Y-43800D03*
X63600Y-43800D03*
X47600Y-43800D03*
X49600Y-43800D03*
X51600Y-43800D03*
X59600Y-33800D03*
X57600Y-33800D03*
X63600Y-33800D03*
X61600Y-33800D03*
G54D12*
X66600Y-33900D03*
X66600Y-43742D03*
X44600Y-33900D03*
X44600Y-43742D03*
G54D13*
X57250Y-39250D03*
X57150Y-38250D03*
X57450Y-40650D03*
X58850Y-40550D03*
X57750Y-36050D03*
X54350Y-36450D03*
X60350Y-36450D03*
X53050Y-37550D03*
X62650Y-38650D03*
X52950Y-35150D03*
X57250Y-36250D03*
X56750Y-39250D03*
X52950Y-40050D03*
X59850Y-38550D03*
X58150Y-38450D03*
X59050Y-35650D03*
X53550Y-35550D03*
X57950Y-39650D03*
X53050Y-36950D03*
G54D14*
X59600Y-33800D02*
X59600Y-33300D01*
X59600Y-33300D02*
X60100Y-32800D01*
X60100Y-32800D02*
X63100Y-32800D01*
X63100Y-32800D02*
X63600Y-33300D01*
X63600Y-33300D02*
X63600Y-33800D01*
X61600Y-33800D02*
X61600Y-34750D01*
X63250Y-36350D02*
X63250Y-35650D01*
X63250Y-35650D02*
X62350Y-34750D01*
X62350Y-34750D02*
X61600Y-34750D01*
X55600Y-34400D02*
X55600Y-33800D01*
X61600Y-34750D02*
X55950Y-34750D01*
X55950Y-34750D02*
X55600Y-34400D01*
X57250Y-39250D02*
X57350Y-39150D01*
X57350Y-39150D02*
X57350Y-38450D01*
X57350Y-38450D02*
X57150Y-38250D01*
X47600Y-43800D02*
X47600Y-44200D01*
X62750Y-44650D02*
X63600Y-43800D01*
X48050Y-44650D02*
X62750Y-44650D01*
X47600Y-44200D02*
X48050Y-44650D01*
X63250Y-43450D02*
X63600Y-43800D01*
X63250Y-36350D02*
X63250Y-43450D01*
G54D15*
X58750Y-40650D02*
X57450Y-40650D01*
X58850Y-40550D02*
X58750Y-40650D01*
X49600Y-43050D02*
X49600Y-37650D01*
X50800Y-36450D02*
X54350Y-36450D01*
X49600Y-37650D02*
X50800Y-36450D01*
X49600Y-43800D02*
X49600Y-43050D01*
X54350Y-36450D02*
X54350Y-36100D01*
X54350Y-36100D02*
X54650Y-35800D01*
X54650Y-35800D02*
X57500Y-35800D01*
X57500Y-35800D02*
X57750Y-36050D01*
X49600Y-43800D02*
X49700Y-43800D01*
X52950Y-36450D02*
X54350Y-36450D01*
X56780Y-42860D02*
X57940Y-42860D01*
X57940Y-42860D02*
X60350Y-40450D01*
X51600Y-43800D02*
X51600Y-43190D01*
X51600Y-43190D02*
X51270Y-42860D01*
X50250Y-41730D02*
X50250Y-42240D01*
X50870Y-42860D02*
X51270Y-42860D01*
X51270Y-42860D02*
X56780Y-42860D01*
X50250Y-42240D02*
X50870Y-42860D01*
X50250Y-40410D02*
X50250Y-38100D01*
X50800Y-37550D02*
X53050Y-37550D01*
X50250Y-38100D02*
X50800Y-37550D01*
X60350Y-40450D02*
X60350Y-40250D01*
X60350Y-40350D02*
X60350Y-40250D01*
X60350Y-40250D02*
X60350Y-36450D01*
X50250Y-41730D02*
X50250Y-40410D01*
X62650Y-36050D02*
X62650Y-38650D01*
X61750Y-35150D02*
X62650Y-36050D01*
X52950Y-35150D02*
X61750Y-35150D01*
X56750Y-39250D02*
X56750Y-36750D01*
X56750Y-36750D02*
X57250Y-36250D01*
X58350Y-40050D02*
X52950Y-40050D01*
X59850Y-38550D02*
X58350Y-40050D01*
X58150Y-36450D02*
X58150Y-35850D01*
X58150Y-38450D02*
X58150Y-36450D01*
X58450Y-35550D02*
X58150Y-35850D01*
X53550Y-35550D02*
X58450Y-35550D01*
X58450Y-35550D02*
X59050Y-35550D01*
X56450Y-39650D02*
X57950Y-39650D01*
X56150Y-39350D02*
X56450Y-39650D01*
X56150Y-38150D02*
X56150Y-39350D01*
X55150Y-37150D02*
X56150Y-38150D01*
X53250Y-37150D02*
X55150Y-37150D01*
X53050Y-36950D02*
X53250Y-37150D01*
M02*
