G04 (created by PCBNEW (2013-07-07 BZR 4022)-stable) date 25/7/2559 14:55:53*
%MOIN*%
G04 Gerber Fmt 3.4, Leading zero omitted, Abs format*
%FSLAX34Y34*%
G01*
G70*
G90*
G04 APERTURE LIST*
%ADD10C,0.00590551*%
%ADD11R,0.036X0.036*%
%ADD12R,0.025X0.05*%
%ADD13R,0.06X0.08*%
%ADD14R,0.055X0.035*%
%ADD15R,0.0157X0.0236*%
%ADD16R,0.0629X0.0709*%
%ADD17R,0.0866X0.0709*%
%ADD18C,0.1*%
%ADD19C,0.1575*%
G04 APERTURE END LIST*
G54D10*
G54D11*
X51250Y-36650D03*
X51950Y-36650D03*
X51600Y-37450D03*
X51250Y-39650D03*
X51950Y-39650D03*
X51600Y-40450D03*
G54D12*
X53600Y-39400D03*
X54100Y-39400D03*
X54600Y-39400D03*
X55100Y-39400D03*
X55100Y-37200D03*
X54600Y-37200D03*
X54100Y-37200D03*
X53600Y-37200D03*
G54D13*
X53700Y-41300D03*
X55000Y-41300D03*
G54D14*
X61850Y-39925D03*
X61850Y-39175D03*
X61850Y-37175D03*
X61850Y-37925D03*
X60850Y-37925D03*
X60850Y-37175D03*
X59850Y-37925D03*
X59850Y-37175D03*
X58850Y-37925D03*
X58850Y-37175D03*
X59850Y-39175D03*
X59850Y-39925D03*
X60850Y-39925D03*
X60850Y-39175D03*
X58850Y-39175D03*
X58850Y-39925D03*
G54D15*
X56173Y-36050D03*
X56527Y-36050D03*
G54D16*
X57409Y-37300D03*
X56291Y-37300D03*
G54D17*
X49600Y-39260D03*
X49600Y-40840D03*
X49600Y-36260D03*
X49600Y-37840D03*
G54D18*
X53600Y-33800D03*
X51600Y-33800D03*
X55600Y-33800D03*
X49600Y-33800D03*
X47600Y-33800D03*
X53600Y-43800D03*
X55600Y-43800D03*
X57600Y-43800D03*
X59600Y-43800D03*
X61600Y-43800D03*
X63600Y-43800D03*
X47600Y-43800D03*
X49600Y-43800D03*
X51600Y-43800D03*
X59600Y-33800D03*
X57600Y-33800D03*
X63600Y-33800D03*
X61600Y-33800D03*
G54D19*
X66600Y-33900D03*
X66600Y-43742D03*
X44600Y-33900D03*
X44600Y-43742D03*
M02*
