G04 (created by PCBNEW (2013-07-07 BZR 4022)-stable) date 25/7/2559 14:55:53*
%MOIN*%
G04 Gerber Fmt 3.4, Leading zero omitted, Abs format*
%FSLAX34Y34*%
G01*
G70*
G90*
G04 APERTURE LIST*
%ADD10C,0.00590551*%
%ADD11R,0.036X0.036*%
%ADD12R,0.025X0.05*%
%ADD13R,0.06X0.08*%
%ADD14R,0.055X0.035*%
%ADD15R,0.0157X0.0236*%
%ADD16R,0.0629X0.0709*%
%ADD17R,0.0866X0.0709*%
%ADD18C,0.1*%
%ADD19C,0.1575*%
%ADD20C,0.04*%
%ADD21C,0.024*%
%ADD22C,0.015*%
G04 APERTURE END LIST*
G54D10*
G54D11*
X51250Y-36650D03*
X51950Y-36650D03*
X51600Y-37450D03*
X51250Y-39650D03*
X51950Y-39650D03*
X51600Y-40450D03*
G54D12*
X53600Y-39400D03*
X54100Y-39400D03*
X54600Y-39400D03*
X55100Y-39400D03*
X55100Y-37200D03*
X54600Y-37200D03*
X54100Y-37200D03*
X53600Y-37200D03*
G54D13*
X53700Y-41300D03*
X55000Y-41300D03*
G54D14*
X61850Y-39925D03*
X61850Y-39175D03*
X61850Y-37175D03*
X61850Y-37925D03*
X60850Y-37925D03*
X60850Y-37175D03*
X59850Y-37925D03*
X59850Y-37175D03*
X58850Y-37925D03*
X58850Y-37175D03*
X59850Y-39175D03*
X59850Y-39925D03*
X60850Y-39925D03*
X60850Y-39175D03*
X58850Y-39175D03*
X58850Y-39925D03*
G54D15*
X56173Y-36050D03*
X56527Y-36050D03*
G54D16*
X57409Y-37300D03*
X56291Y-37300D03*
G54D17*
X49600Y-39260D03*
X49600Y-40840D03*
X49600Y-36260D03*
X49600Y-37840D03*
G54D18*
X53600Y-33800D03*
X51600Y-33800D03*
X55600Y-33800D03*
X49600Y-33800D03*
X47600Y-33800D03*
X53600Y-43800D03*
X55600Y-43800D03*
X57600Y-43800D03*
X59600Y-43800D03*
X61600Y-43800D03*
X63600Y-43800D03*
X47600Y-43800D03*
X49600Y-43800D03*
X51600Y-43800D03*
X59600Y-33800D03*
X57600Y-33800D03*
X63600Y-33800D03*
X61600Y-33800D03*
G54D19*
X66600Y-33900D03*
X66600Y-43742D03*
X44600Y-33900D03*
X44600Y-43742D03*
G54D20*
X57250Y-39250D03*
X57150Y-38250D03*
X57450Y-40650D03*
X58850Y-40550D03*
X57750Y-36050D03*
X54350Y-36450D03*
X60350Y-36450D03*
X53050Y-37550D03*
X62650Y-38650D03*
X52950Y-35150D03*
X57250Y-36250D03*
X56750Y-39250D03*
X52950Y-40050D03*
X59850Y-38550D03*
X58150Y-38450D03*
X59050Y-35650D03*
X53550Y-35550D03*
X57950Y-39650D03*
X53050Y-36950D03*
G54D21*
X64105Y-37925D02*
X64450Y-38270D01*
X61850Y-37925D02*
X64105Y-37925D01*
X64450Y-38270D02*
X64450Y-34050D01*
X64200Y-33800D02*
X63600Y-33800D01*
X64450Y-34050D02*
X64200Y-33800D01*
X64450Y-40940D02*
X64450Y-38270D01*
X59600Y-43800D02*
X60450Y-44650D01*
X64450Y-44150D02*
X64450Y-40940D01*
X63950Y-44650D02*
X64450Y-44150D01*
X60450Y-44650D02*
X63950Y-44650D01*
X61850Y-39175D02*
X61850Y-38925D01*
X61850Y-38925D02*
X61850Y-37925D01*
X54600Y-39400D02*
X54600Y-39100D01*
X58075Y-37925D02*
X58850Y-37925D01*
X57250Y-38750D02*
X58075Y-37925D01*
X54950Y-38750D02*
X57250Y-38750D01*
X54600Y-39100D02*
X54950Y-38750D01*
X60850Y-37925D02*
X61850Y-37925D01*
X59850Y-37925D02*
X60850Y-37925D01*
X58850Y-37925D02*
X59850Y-37925D01*
X54100Y-39400D02*
X54600Y-39400D01*
X55600Y-35210D02*
X55600Y-35490D01*
X54130Y-35970D02*
X53600Y-36500D01*
X55120Y-35970D02*
X54130Y-35970D01*
X55600Y-35490D02*
X55120Y-35970D01*
X55600Y-37190D02*
X56181Y-37190D01*
X56181Y-37190D02*
X56291Y-37300D01*
X55100Y-37200D02*
X55460Y-37200D01*
X55600Y-37200D02*
X55600Y-37190D01*
X55460Y-37200D02*
X55600Y-37200D01*
X56173Y-36050D02*
X55600Y-36050D01*
X55600Y-36050D02*
X55600Y-36060D01*
X55600Y-33800D02*
X55600Y-35210D01*
X55600Y-35210D02*
X55600Y-36060D01*
X55600Y-36060D02*
X55600Y-37190D01*
X55600Y-37190D02*
X55600Y-37880D01*
X55970Y-38250D02*
X57150Y-38250D01*
X55600Y-37880D02*
X55970Y-38250D01*
X57250Y-39250D02*
X57350Y-39250D01*
X57350Y-39250D02*
X57450Y-39150D01*
X57450Y-39150D02*
X58350Y-39150D01*
X58850Y-39175D02*
X58825Y-39150D01*
X58350Y-39150D02*
X58825Y-39150D01*
X56191Y-37200D02*
X56291Y-37300D01*
X56191Y-37200D02*
X56291Y-37300D01*
X53600Y-37200D02*
X53600Y-36500D01*
G54D22*
X58850Y-39925D02*
X58850Y-40550D01*
X57400Y-40600D02*
X56600Y-40600D01*
X57450Y-40650D02*
X57400Y-40600D01*
X58850Y-39925D02*
X58850Y-39950D01*
X56450Y-44150D02*
X55950Y-44650D01*
X56600Y-40600D02*
X56450Y-40750D01*
X56450Y-40750D02*
X56450Y-44150D01*
X58650Y-43050D02*
X58850Y-42850D01*
X60650Y-42850D02*
X61600Y-43800D01*
X58850Y-42850D02*
X60650Y-42850D01*
X58650Y-44450D02*
X58650Y-43050D01*
X58450Y-44650D02*
X58650Y-44450D01*
X55950Y-44650D02*
X58450Y-44650D01*
X54450Y-44650D02*
X55950Y-44650D01*
X53600Y-43800D02*
X54450Y-44650D01*
G54D21*
X51600Y-40450D02*
X51600Y-40680D01*
X51440Y-40840D02*
X51460Y-40840D01*
X51600Y-40680D02*
X51440Y-40840D01*
X49600Y-40840D02*
X51460Y-40840D01*
X51460Y-40840D02*
X52310Y-40840D01*
X52960Y-42250D02*
X53350Y-42250D01*
X52640Y-41930D02*
X52960Y-42250D01*
X52640Y-41170D02*
X52640Y-41930D01*
X52310Y-40840D02*
X52640Y-41170D01*
X55100Y-39400D02*
X55100Y-41200D01*
X55100Y-41200D02*
X55000Y-41300D01*
X55000Y-42000D02*
X55000Y-41300D01*
X53350Y-42250D02*
X54750Y-42250D01*
X54750Y-42250D02*
X55000Y-42000D01*
X49600Y-36260D02*
X50860Y-36260D01*
X50860Y-36260D02*
X51250Y-36650D01*
X49600Y-33800D02*
X49600Y-36260D01*
G54D22*
X60650Y-36050D02*
X60850Y-36250D01*
X60850Y-36250D02*
X60850Y-37175D01*
X57750Y-36050D02*
X60650Y-36050D01*
X54100Y-36700D02*
X54100Y-37200D01*
X54350Y-36450D02*
X54100Y-36700D01*
X59850Y-37175D02*
X59850Y-36550D01*
X59950Y-36450D02*
X59850Y-36550D01*
X60350Y-36450D02*
X59950Y-36450D01*
X54600Y-37600D02*
X54600Y-37200D01*
X54350Y-37850D02*
X54600Y-37600D01*
X53350Y-37850D02*
X54350Y-37850D01*
X53050Y-37550D02*
X53350Y-37850D01*
X57409Y-37300D02*
X58725Y-37300D01*
X58725Y-37300D02*
X58850Y-37175D01*
G54D21*
X51600Y-37450D02*
X51600Y-37640D01*
X51600Y-37640D02*
X51400Y-37840D01*
X50460Y-37840D02*
X51400Y-37840D01*
X51400Y-37840D02*
X52540Y-37840D01*
X52540Y-37840D02*
X53600Y-38900D01*
X53600Y-38900D02*
X53600Y-39400D01*
X53600Y-39400D02*
X53600Y-41200D01*
X53600Y-41200D02*
X53700Y-41300D01*
X49600Y-37840D02*
X50460Y-37840D01*
G54D22*
X60000Y-41450D02*
X62290Y-41450D01*
X62290Y-41450D02*
X62650Y-41090D01*
X60850Y-39925D02*
X61850Y-39925D01*
X61850Y-39925D02*
X62325Y-39925D01*
X62325Y-39925D02*
X62650Y-40250D01*
X51600Y-33800D02*
X52950Y-35150D01*
X62650Y-38650D02*
X62650Y-40050D01*
X57600Y-43800D02*
X57600Y-43200D01*
X62650Y-41090D02*
X62650Y-40250D01*
X62650Y-40250D02*
X62650Y-40050D01*
X59350Y-41450D02*
X60000Y-41450D01*
X57600Y-43200D02*
X59350Y-41450D01*
X57600Y-35250D02*
X57600Y-35500D01*
X57250Y-35850D02*
X57250Y-36250D01*
X57600Y-35500D02*
X57250Y-35850D01*
X55600Y-43800D02*
X55950Y-43450D01*
X55950Y-40050D02*
X55950Y-43450D01*
X56750Y-39250D02*
X55950Y-40050D01*
X57050Y-36050D02*
X56527Y-36050D01*
X57250Y-36250D02*
X57050Y-36050D01*
X57600Y-33800D02*
X57600Y-35250D01*
X57600Y-35250D02*
X57600Y-35300D01*
X60850Y-39175D02*
X60850Y-38750D01*
X52550Y-39650D02*
X51950Y-39650D01*
X52950Y-40050D02*
X52550Y-39650D01*
X60650Y-38550D02*
X59850Y-38550D01*
X60850Y-38750D02*
X60650Y-38550D01*
X58150Y-38450D02*
X58350Y-38650D01*
X59325Y-38650D02*
X59850Y-39175D01*
X58350Y-38650D02*
X59325Y-38650D01*
X59050Y-35650D02*
X61650Y-35650D01*
X61850Y-35850D02*
X61850Y-37175D01*
X61650Y-35650D02*
X61850Y-35850D01*
X53600Y-35500D02*
X53550Y-35550D01*
X53600Y-33800D02*
X53600Y-35500D01*
X53600Y-33800D02*
X53600Y-34300D01*
X61850Y-36350D02*
X61850Y-37175D01*
X57950Y-40410D02*
X57950Y-40890D01*
X58210Y-41150D02*
X58550Y-41150D01*
X57950Y-40890D02*
X58210Y-41150D01*
X57950Y-39650D02*
X57950Y-40410D01*
X58550Y-41150D02*
X59650Y-41150D01*
X59650Y-41150D02*
X59850Y-40950D01*
X59850Y-40950D02*
X59850Y-39925D01*
X51950Y-36650D02*
X52750Y-36650D01*
X52750Y-36650D02*
X53050Y-36950D01*
G54D21*
X47600Y-37500D02*
X47600Y-38850D01*
X48010Y-39260D02*
X49600Y-39260D01*
X47600Y-38850D02*
X48010Y-39260D01*
X49600Y-39260D02*
X50860Y-39260D01*
X50860Y-39260D02*
X51250Y-39650D01*
X47600Y-33800D02*
X47600Y-37500D01*
M02*
