G04 (created by PCBNEW (2013-07-07 BZR 4022)-stable) date 25/7/2559 14:55:53*
%MOIN*%
G04 Gerber Fmt 3.4, Leading zero omitted, Abs format*
%FSLAX34Y34*%
G01*
G70*
G90*
G04 APERTURE LIST*
%ADD10C,0.00590551*%
%ADD11C,0.011811*%
%ADD12C,0.02*%
%ADD13C,0.00787402*%
%ADD14C,0.01*%
%ADD15C,0.0047*%
%ADD16C,0.005*%
%ADD17C,0.0039*%
%ADD18C,0.0028*%
%ADD19C,0.0026*%
%ADD20C,0.004*%
%ADD21C,0.012*%
%ADD22C,0.015*%
G04 APERTURE END LIST*
G54D10*
G54D11*
X66360Y-37517D02*
X66951Y-37517D01*
X66360Y-37854D01*
X66951Y-37854D01*
X66670Y-38135D02*
X66670Y-38332D01*
X66360Y-38417D02*
X66360Y-38135D01*
X66951Y-38135D01*
X66951Y-38417D01*
X66360Y-38670D02*
X66951Y-38670D01*
X66529Y-38867D01*
X66951Y-39064D01*
X66360Y-39064D01*
X66951Y-39457D02*
X66951Y-39570D01*
X66923Y-39626D01*
X66867Y-39682D01*
X66754Y-39710D01*
X66557Y-39710D01*
X66445Y-39682D01*
X66389Y-39626D01*
X66360Y-39570D01*
X66360Y-39457D01*
X66389Y-39401D01*
X66445Y-39345D01*
X66557Y-39317D01*
X66754Y-39317D01*
X66867Y-39345D01*
X66923Y-39401D01*
X66951Y-39457D01*
G54D12*
X65100Y-41150D02*
X68100Y-41150D01*
X65100Y-38150D02*
G75*
G03X68100Y-41150I3000J0D01*
G74*
G01*
X65100Y-41150D02*
G75*
G03X68100Y-38150I0J3000D01*
G74*
G01*
X68100Y-38150D02*
G75*
G03X66600Y-36650I-1500J0D01*
G74*
G01*
X66600Y-36650D02*
G75*
G03X65100Y-38150I0J-1500D01*
G74*
G01*
G54D13*
X64000Y-46750D02*
X64250Y-46750D01*
X59000Y-46750D02*
X58750Y-46750D01*
X63000Y-46750D02*
X64000Y-46750D01*
X60000Y-46750D02*
X59000Y-46750D01*
X47250Y-46750D02*
X46750Y-46750D01*
X51750Y-46750D02*
X52250Y-46750D01*
G54D11*
X45426Y-35760D02*
X46226Y-35760D01*
X45426Y-36132D01*
X46226Y-36132D01*
X45464Y-36689D02*
X45426Y-36627D01*
X45426Y-36503D01*
X45464Y-36441D01*
X45540Y-36410D01*
X45845Y-36410D01*
X45921Y-36441D01*
X45959Y-36503D01*
X45959Y-36627D01*
X45921Y-36689D01*
X45845Y-36720D01*
X45769Y-36720D01*
X45692Y-36410D01*
X45426Y-36998D02*
X45959Y-36998D01*
X45883Y-36998D02*
X45921Y-37029D01*
X45959Y-37091D01*
X45959Y-37184D01*
X45921Y-37246D01*
X45845Y-37277D01*
X45426Y-37277D01*
X45845Y-37277D02*
X45921Y-37308D01*
X45959Y-37370D01*
X45959Y-37463D01*
X45921Y-37525D01*
X45845Y-37555D01*
X45426Y-37555D01*
X45426Y-37958D02*
X45464Y-37896D01*
X45502Y-37865D01*
X45578Y-37834D01*
X45807Y-37834D01*
X45883Y-37865D01*
X45921Y-37896D01*
X45959Y-37958D01*
X45959Y-38051D01*
X45921Y-38113D01*
X45883Y-38144D01*
X45807Y-38175D01*
X45578Y-38175D01*
X45502Y-38144D01*
X45464Y-38113D01*
X45426Y-38051D01*
X45426Y-37958D01*
X46226Y-38855D02*
X45426Y-39072D01*
X46226Y-39289D01*
X45426Y-40341D02*
X45426Y-39970D01*
X45426Y-40155D02*
X46226Y-40155D01*
X46111Y-40094D01*
X46035Y-40032D01*
X45997Y-39970D01*
X45502Y-40620D02*
X45464Y-40651D01*
X45426Y-40620D01*
X45464Y-40589D01*
X45502Y-40620D01*
X45426Y-40620D01*
X46226Y-41053D02*
X46226Y-41115D01*
X46188Y-41177D01*
X46150Y-41208D01*
X46073Y-41239D01*
X45921Y-41270D01*
X45730Y-41270D01*
X45578Y-41239D01*
X45502Y-41208D01*
X45464Y-41177D01*
X45426Y-41115D01*
X45426Y-41053D01*
X45464Y-40991D01*
X45502Y-40960D01*
X45578Y-40929D01*
X45730Y-40898D01*
X45921Y-40898D01*
X46073Y-40929D01*
X46150Y-40960D01*
X46188Y-40991D01*
X46226Y-41053D01*
G54D14*
X53038Y-46542D02*
X52847Y-46542D01*
X52847Y-45942D01*
X53323Y-46514D02*
X53285Y-46542D01*
X53209Y-46542D01*
X53171Y-46514D01*
X53152Y-46457D01*
X53152Y-46228D01*
X53171Y-46171D01*
X53209Y-46142D01*
X53285Y-46142D01*
X53323Y-46171D01*
X53342Y-46228D01*
X53342Y-46285D01*
X53152Y-46342D01*
X53476Y-46142D02*
X53571Y-46542D01*
X53666Y-46142D01*
X53971Y-46514D02*
X53933Y-46542D01*
X53857Y-46542D01*
X53819Y-46514D01*
X53800Y-46457D01*
X53800Y-46228D01*
X53819Y-46171D01*
X53857Y-46142D01*
X53933Y-46142D01*
X53971Y-46171D01*
X53990Y-46228D01*
X53990Y-46285D01*
X53800Y-46342D01*
X54219Y-46542D02*
X54180Y-46514D01*
X54161Y-46457D01*
X54161Y-45942D01*
X54371Y-46314D02*
X54676Y-46314D01*
X54866Y-46542D02*
X54866Y-45942D01*
X55000Y-46371D01*
X55133Y-45942D01*
X55133Y-46542D01*
X55476Y-46514D02*
X55438Y-46542D01*
X55361Y-46542D01*
X55323Y-46514D01*
X55304Y-46457D01*
X55304Y-46228D01*
X55323Y-46171D01*
X55361Y-46142D01*
X55438Y-46142D01*
X55476Y-46171D01*
X55495Y-46228D01*
X55495Y-46285D01*
X55304Y-46342D01*
X55609Y-46142D02*
X55761Y-46142D01*
X55666Y-45942D02*
X55666Y-46457D01*
X55685Y-46514D01*
X55723Y-46542D01*
X55761Y-46542D01*
X56047Y-46514D02*
X56009Y-46542D01*
X55933Y-46542D01*
X55895Y-46514D01*
X55876Y-46457D01*
X55876Y-46228D01*
X55895Y-46171D01*
X55933Y-46142D01*
X56009Y-46142D01*
X56047Y-46171D01*
X56066Y-46228D01*
X56066Y-46285D01*
X55876Y-46342D01*
X56238Y-46542D02*
X56238Y-46142D01*
X56238Y-46257D02*
X56257Y-46200D01*
X56276Y-46171D01*
X56314Y-46142D01*
X56352Y-46142D01*
X56485Y-46314D02*
X56790Y-46314D01*
X56923Y-45942D02*
X57057Y-46542D01*
X57190Y-45942D01*
X57495Y-46542D02*
X57495Y-46228D01*
X57476Y-46171D01*
X57438Y-46142D01*
X57361Y-46142D01*
X57323Y-46171D01*
X57495Y-46514D02*
X57457Y-46542D01*
X57361Y-46542D01*
X57323Y-46514D01*
X57304Y-46457D01*
X57304Y-46400D01*
X57323Y-46342D01*
X57361Y-46314D01*
X57457Y-46314D01*
X57495Y-46285D01*
X57742Y-46542D02*
X57704Y-46514D01*
X57685Y-46457D01*
X57685Y-45942D01*
X57857Y-46142D02*
X57952Y-46542D01*
X58047Y-46142D01*
X58352Y-46514D02*
X58314Y-46542D01*
X58238Y-46542D01*
X58199Y-46514D01*
X58180Y-46457D01*
X58180Y-46228D01*
X58199Y-46171D01*
X58238Y-46142D01*
X58314Y-46142D01*
X58352Y-46171D01*
X58371Y-46228D01*
X58371Y-46285D01*
X58180Y-46342D01*
X63009Y-45740D02*
X63066Y-45764D01*
X63085Y-45788D01*
X63104Y-45835D01*
X63104Y-45907D01*
X63085Y-45954D01*
X63066Y-45978D01*
X63028Y-46002D01*
X62876Y-46002D01*
X62876Y-45502D01*
X63009Y-45502D01*
X63047Y-45526D01*
X63066Y-45550D01*
X63085Y-45597D01*
X63085Y-45645D01*
X63066Y-45692D01*
X63047Y-45716D01*
X63009Y-45740D01*
X62876Y-45740D01*
X63333Y-46002D02*
X63295Y-45978D01*
X63276Y-45930D01*
X63276Y-45502D01*
X63657Y-46002D02*
X63657Y-45740D01*
X63638Y-45692D01*
X63600Y-45669D01*
X63523Y-45669D01*
X63485Y-45692D01*
X63657Y-45978D02*
X63619Y-46002D01*
X63523Y-46002D01*
X63485Y-45978D01*
X63466Y-45930D01*
X63466Y-45883D01*
X63485Y-45835D01*
X63523Y-45811D01*
X63619Y-45811D01*
X63657Y-45788D01*
X64019Y-45978D02*
X63980Y-46002D01*
X63904Y-46002D01*
X63866Y-45978D01*
X63847Y-45954D01*
X63828Y-45907D01*
X63828Y-45764D01*
X63847Y-45716D01*
X63866Y-45692D01*
X63904Y-45669D01*
X63980Y-45669D01*
X64019Y-45692D01*
X64190Y-46002D02*
X64190Y-45502D01*
X64228Y-45811D02*
X64342Y-46002D01*
X64342Y-45669D02*
X64190Y-45859D01*
X60828Y-45764D02*
X60828Y-46002D01*
X60695Y-45502D02*
X60828Y-45764D01*
X60961Y-45502D01*
X61247Y-45978D02*
X61209Y-46002D01*
X61133Y-46002D01*
X61095Y-45978D01*
X61076Y-45930D01*
X61076Y-45740D01*
X61095Y-45692D01*
X61133Y-45669D01*
X61209Y-45669D01*
X61247Y-45692D01*
X61266Y-45740D01*
X61266Y-45788D01*
X61076Y-45835D01*
X61495Y-46002D02*
X61457Y-45978D01*
X61438Y-45930D01*
X61438Y-45502D01*
X61704Y-46002D02*
X61666Y-45978D01*
X61647Y-45930D01*
X61647Y-45502D01*
X61914Y-46002D02*
X61876Y-45978D01*
X61857Y-45954D01*
X61838Y-45907D01*
X61838Y-45764D01*
X61857Y-45716D01*
X61876Y-45692D01*
X61914Y-45669D01*
X61971Y-45669D01*
X62009Y-45692D01*
X62028Y-45716D01*
X62047Y-45764D01*
X62047Y-45907D01*
X62028Y-45954D01*
X62009Y-45978D01*
X61971Y-46002D01*
X61914Y-46002D01*
X62180Y-45669D02*
X62257Y-46002D01*
X62333Y-45764D01*
X62409Y-46002D01*
X62485Y-45669D01*
X59371Y-46002D02*
X59238Y-45764D01*
X59142Y-46002D02*
X59142Y-45502D01*
X59295Y-45502D01*
X59333Y-45526D01*
X59352Y-45550D01*
X59371Y-45597D01*
X59371Y-45669D01*
X59352Y-45716D01*
X59333Y-45740D01*
X59295Y-45764D01*
X59142Y-45764D01*
X59695Y-45978D02*
X59657Y-46002D01*
X59580Y-46002D01*
X59542Y-45978D01*
X59523Y-45930D01*
X59523Y-45740D01*
X59542Y-45692D01*
X59580Y-45669D01*
X59657Y-45669D01*
X59695Y-45692D01*
X59714Y-45740D01*
X59714Y-45788D01*
X59523Y-45835D01*
X60057Y-46002D02*
X60057Y-45502D01*
X60057Y-45978D02*
X60019Y-46002D01*
X59942Y-46002D01*
X59904Y-45978D01*
X59885Y-45954D01*
X59866Y-45907D01*
X59866Y-45764D01*
X59885Y-45716D01*
X59904Y-45692D01*
X59942Y-45669D01*
X60019Y-45669D01*
X60057Y-45692D01*
G54D11*
X60785Y-46992D02*
X60500Y-46992D01*
X60500Y-46392D01*
X61214Y-46964D02*
X61157Y-46992D01*
X61042Y-46992D01*
X60985Y-46964D01*
X60957Y-46907D01*
X60957Y-46678D01*
X60985Y-46621D01*
X61042Y-46592D01*
X61157Y-46592D01*
X61214Y-46621D01*
X61242Y-46678D01*
X61242Y-46735D01*
X60957Y-46792D01*
X61442Y-46592D02*
X61585Y-46992D01*
X61728Y-46592D01*
X62185Y-46964D02*
X62128Y-46992D01*
X62014Y-46992D01*
X61957Y-46964D01*
X61928Y-46907D01*
X61928Y-46678D01*
X61957Y-46621D01*
X62014Y-46592D01*
X62128Y-46592D01*
X62185Y-46621D01*
X62214Y-46678D01*
X62214Y-46735D01*
X61928Y-46792D01*
X62557Y-46992D02*
X62500Y-46964D01*
X62471Y-46907D01*
X62471Y-46392D01*
G54D14*
X48933Y-45740D02*
X48990Y-45764D01*
X49009Y-45788D01*
X49028Y-45835D01*
X49028Y-45907D01*
X49009Y-45954D01*
X48990Y-45978D01*
X48952Y-46002D01*
X48800Y-46002D01*
X48800Y-45502D01*
X48933Y-45502D01*
X48971Y-45526D01*
X48990Y-45550D01*
X49009Y-45597D01*
X49009Y-45645D01*
X48990Y-45692D01*
X48971Y-45716D01*
X48933Y-45740D01*
X48800Y-45740D01*
X49200Y-46002D02*
X49200Y-45669D01*
X49200Y-45764D02*
X49219Y-45716D01*
X49238Y-45692D01*
X49276Y-45669D01*
X49314Y-45669D01*
X49504Y-46002D02*
X49466Y-45978D01*
X49447Y-45954D01*
X49428Y-45907D01*
X49428Y-45764D01*
X49447Y-45716D01*
X49466Y-45692D01*
X49504Y-45669D01*
X49561Y-45669D01*
X49600Y-45692D01*
X49619Y-45716D01*
X49638Y-45764D01*
X49638Y-45907D01*
X49619Y-45954D01*
X49600Y-45978D01*
X49561Y-46002D01*
X49504Y-46002D01*
X49771Y-45669D02*
X49847Y-46002D01*
X49923Y-45764D01*
X50000Y-46002D01*
X50076Y-45669D01*
X50228Y-45669D02*
X50228Y-46002D01*
X50228Y-45716D02*
X50247Y-45692D01*
X50285Y-45669D01*
X50342Y-45669D01*
X50380Y-45692D01*
X50400Y-45740D01*
X50400Y-46002D01*
X51171Y-45740D02*
X51228Y-45764D01*
X51247Y-45788D01*
X51266Y-45835D01*
X51266Y-45907D01*
X51247Y-45954D01*
X51228Y-45978D01*
X51190Y-46002D01*
X51038Y-46002D01*
X51038Y-45502D01*
X51171Y-45502D01*
X51209Y-45526D01*
X51228Y-45550D01*
X51247Y-45597D01*
X51247Y-45645D01*
X51228Y-45692D01*
X51209Y-45716D01*
X51171Y-45740D01*
X51038Y-45740D01*
X51495Y-46002D02*
X51457Y-45978D01*
X51438Y-45930D01*
X51438Y-45502D01*
X51819Y-45669D02*
X51819Y-46002D01*
X51647Y-45669D02*
X51647Y-45930D01*
X51666Y-45978D01*
X51704Y-46002D01*
X51761Y-46002D01*
X51800Y-45978D01*
X51819Y-45954D01*
X52161Y-45978D02*
X52123Y-46002D01*
X52047Y-46002D01*
X52009Y-45978D01*
X51990Y-45930D01*
X51990Y-45740D01*
X52009Y-45692D01*
X52047Y-45669D01*
X52123Y-45669D01*
X52161Y-45692D01*
X52180Y-45740D01*
X52180Y-45788D01*
X51990Y-45835D01*
X47009Y-45740D02*
X47066Y-45764D01*
X47085Y-45788D01*
X47104Y-45835D01*
X47104Y-45907D01*
X47085Y-45954D01*
X47066Y-45978D01*
X47028Y-46002D01*
X46876Y-46002D01*
X46876Y-45502D01*
X47009Y-45502D01*
X47047Y-45526D01*
X47066Y-45550D01*
X47085Y-45597D01*
X47085Y-45645D01*
X47066Y-45692D01*
X47047Y-45716D01*
X47009Y-45740D01*
X46876Y-45740D01*
X47333Y-46002D02*
X47295Y-45978D01*
X47276Y-45930D01*
X47276Y-45502D01*
X47657Y-46002D02*
X47657Y-45740D01*
X47638Y-45692D01*
X47600Y-45669D01*
X47523Y-45669D01*
X47485Y-45692D01*
X47657Y-45978D02*
X47619Y-46002D01*
X47523Y-46002D01*
X47485Y-45978D01*
X47466Y-45930D01*
X47466Y-45883D01*
X47485Y-45835D01*
X47523Y-45811D01*
X47619Y-45811D01*
X47657Y-45788D01*
X48019Y-45978D02*
X47980Y-46002D01*
X47904Y-46002D01*
X47866Y-45978D01*
X47847Y-45954D01*
X47828Y-45907D01*
X47828Y-45764D01*
X47847Y-45716D01*
X47866Y-45692D01*
X47904Y-45669D01*
X47980Y-45669D01*
X48019Y-45692D01*
X48190Y-46002D02*
X48190Y-45502D01*
X48228Y-45811D02*
X48342Y-46002D01*
X48342Y-45669D02*
X48190Y-45859D01*
G54D11*
X47857Y-46678D02*
X47657Y-46678D01*
X47657Y-46992D02*
X47657Y-46392D01*
X47942Y-46392D01*
X48257Y-46992D02*
X48200Y-46964D01*
X48171Y-46907D01*
X48171Y-46392D01*
X48571Y-46992D02*
X48514Y-46964D01*
X48485Y-46935D01*
X48457Y-46878D01*
X48457Y-46707D01*
X48485Y-46650D01*
X48514Y-46621D01*
X48571Y-46592D01*
X48657Y-46592D01*
X48714Y-46621D01*
X48742Y-46650D01*
X48771Y-46707D01*
X48771Y-46878D01*
X48742Y-46935D01*
X48714Y-46964D01*
X48657Y-46992D01*
X48571Y-46992D01*
X49285Y-46992D02*
X49285Y-46678D01*
X49257Y-46621D01*
X49200Y-46592D01*
X49085Y-46592D01*
X49028Y-46621D01*
X49285Y-46964D02*
X49228Y-46992D01*
X49085Y-46992D01*
X49028Y-46964D01*
X49000Y-46907D01*
X49000Y-46850D01*
X49028Y-46792D01*
X49085Y-46764D01*
X49228Y-46764D01*
X49285Y-46735D01*
X49485Y-46592D02*
X49714Y-46592D01*
X49571Y-46392D02*
X49571Y-46907D01*
X49600Y-46964D01*
X49657Y-46992D01*
X49714Y-46992D01*
X50342Y-46964D02*
X50428Y-46992D01*
X50571Y-46992D01*
X50628Y-46964D01*
X50657Y-46935D01*
X50685Y-46878D01*
X50685Y-46821D01*
X50657Y-46764D01*
X50628Y-46735D01*
X50571Y-46707D01*
X50457Y-46678D01*
X50400Y-46650D01*
X50371Y-46621D01*
X50342Y-46564D01*
X50342Y-46507D01*
X50371Y-46450D01*
X50400Y-46421D01*
X50457Y-46392D01*
X50600Y-46392D01*
X50685Y-46421D01*
X50885Y-46392D02*
X51028Y-46992D01*
X51142Y-46564D01*
X51257Y-46992D01*
X51400Y-46392D01*
X62057Y-31628D02*
X62114Y-31657D01*
X62199Y-31657D01*
X62285Y-31628D01*
X62342Y-31571D01*
X62371Y-31514D01*
X62399Y-31400D01*
X62399Y-31314D01*
X62371Y-31200D01*
X62342Y-31142D01*
X62285Y-31085D01*
X62199Y-31057D01*
X62142Y-31057D01*
X62057Y-31085D01*
X62028Y-31114D01*
X62028Y-31314D01*
X62142Y-31314D01*
X61771Y-31057D02*
X61771Y-31657D01*
X61428Y-31057D01*
X61428Y-31657D01*
X61142Y-31057D02*
X61142Y-31657D01*
X61000Y-31657D01*
X60914Y-31628D01*
X60857Y-31571D01*
X60828Y-31514D01*
X60800Y-31400D01*
X60800Y-31314D01*
X60828Y-31200D01*
X60857Y-31142D01*
X60914Y-31085D01*
X61000Y-31057D01*
X61142Y-31057D01*
X64371Y-31285D02*
X63914Y-31285D01*
X64142Y-31057D02*
X64142Y-31514D01*
X63342Y-31657D02*
X63628Y-31657D01*
X63657Y-31371D01*
X63628Y-31400D01*
X63571Y-31428D01*
X63428Y-31428D01*
X63371Y-31400D01*
X63342Y-31371D01*
X63314Y-31314D01*
X63314Y-31171D01*
X63342Y-31114D01*
X63371Y-31085D01*
X63428Y-31057D01*
X63571Y-31057D01*
X63628Y-31085D01*
X63657Y-31114D01*
X63142Y-31657D02*
X62942Y-31057D01*
X62742Y-31657D01*
G54D13*
X60100Y-30800D02*
X60350Y-30800D01*
X57100Y-30800D02*
X56850Y-30800D01*
G54D14*
X60333Y-32097D02*
X60238Y-31597D01*
X60161Y-31954D01*
X60085Y-31597D01*
X59990Y-32097D01*
X59838Y-31597D02*
X59838Y-32097D01*
X59666Y-31597D02*
X59666Y-31859D01*
X59685Y-31907D01*
X59723Y-31930D01*
X59780Y-31930D01*
X59819Y-31907D01*
X59838Y-31883D01*
X59476Y-31597D02*
X59476Y-31930D01*
X59476Y-32097D02*
X59495Y-32073D01*
X59476Y-32050D01*
X59457Y-32073D01*
X59476Y-32097D01*
X59476Y-32050D01*
X59342Y-31930D02*
X59190Y-31930D01*
X59285Y-32097D02*
X59285Y-31669D01*
X59266Y-31621D01*
X59228Y-31597D01*
X59190Y-31597D01*
X58904Y-31621D02*
X58942Y-31597D01*
X59019Y-31597D01*
X59057Y-31621D01*
X59076Y-31669D01*
X59076Y-31859D01*
X59057Y-31907D01*
X59019Y-31930D01*
X58942Y-31930D01*
X58904Y-31907D01*
X58885Y-31859D01*
X58885Y-31811D01*
X59076Y-31764D01*
X58028Y-31859D02*
X57971Y-31835D01*
X57952Y-31811D01*
X57933Y-31764D01*
X57933Y-31692D01*
X57952Y-31645D01*
X57971Y-31621D01*
X58009Y-31597D01*
X58161Y-31597D01*
X58161Y-32097D01*
X58028Y-32097D01*
X57990Y-32073D01*
X57971Y-32050D01*
X57952Y-32002D01*
X57952Y-31954D01*
X57971Y-31907D01*
X57990Y-31883D01*
X58028Y-31859D01*
X58161Y-31859D01*
X57704Y-31597D02*
X57742Y-31621D01*
X57761Y-31669D01*
X57761Y-32097D01*
X57380Y-31930D02*
X57380Y-31597D01*
X57552Y-31930D02*
X57552Y-31669D01*
X57533Y-31621D01*
X57495Y-31597D01*
X57438Y-31597D01*
X57400Y-31621D01*
X57380Y-31645D01*
X57038Y-31621D02*
X57076Y-31597D01*
X57152Y-31597D01*
X57190Y-31621D01*
X57209Y-31669D01*
X57209Y-31859D01*
X57190Y-31907D01*
X57152Y-31930D01*
X57076Y-31930D01*
X57038Y-31907D01*
X57019Y-31859D01*
X57019Y-31811D01*
X57209Y-31764D01*
G54D11*
X59671Y-30557D02*
X59671Y-31157D01*
X59471Y-30728D01*
X59271Y-31157D01*
X59271Y-30557D01*
X58757Y-30585D02*
X58814Y-30557D01*
X58928Y-30557D01*
X58985Y-30585D01*
X59014Y-30642D01*
X59014Y-30871D01*
X58985Y-30928D01*
X58928Y-30957D01*
X58814Y-30957D01*
X58757Y-30928D01*
X58728Y-30871D01*
X58728Y-30814D01*
X59014Y-30757D01*
X58557Y-30957D02*
X58328Y-30957D01*
X58471Y-31157D02*
X58471Y-30642D01*
X58442Y-30585D01*
X58385Y-30557D01*
X58328Y-30557D01*
X57900Y-30585D02*
X57957Y-30557D01*
X58071Y-30557D01*
X58128Y-30585D01*
X58157Y-30642D01*
X58157Y-30871D01*
X58128Y-30928D01*
X58071Y-30957D01*
X57957Y-30957D01*
X57900Y-30928D01*
X57871Y-30871D01*
X57871Y-30814D01*
X58157Y-30757D01*
X57614Y-30557D02*
X57614Y-30957D01*
X57614Y-30842D02*
X57585Y-30900D01*
X57557Y-30928D01*
X57500Y-30957D01*
X57442Y-30957D01*
G54D13*
X50100Y-30800D02*
X46850Y-30800D01*
X53100Y-30800D02*
X56350Y-30800D01*
X56350Y-30800D02*
X53100Y-30800D01*
X53100Y-30800D02*
X56350Y-30800D01*
G54D14*
X48028Y-31859D02*
X47971Y-31835D01*
X47952Y-31811D01*
X47933Y-31764D01*
X47933Y-31692D01*
X47952Y-31645D01*
X47971Y-31621D01*
X48009Y-31597D01*
X48161Y-31597D01*
X48161Y-32097D01*
X48028Y-32097D01*
X47990Y-32073D01*
X47971Y-32050D01*
X47952Y-32002D01*
X47952Y-31954D01*
X47971Y-31907D01*
X47990Y-31883D01*
X48028Y-31859D01*
X48161Y-31859D01*
X47704Y-31597D02*
X47742Y-31621D01*
X47761Y-31669D01*
X47761Y-32097D01*
X47380Y-31930D02*
X47380Y-31597D01*
X47552Y-31930D02*
X47552Y-31669D01*
X47533Y-31621D01*
X47495Y-31597D01*
X47438Y-31597D01*
X47400Y-31621D01*
X47380Y-31645D01*
X47038Y-31621D02*
X47076Y-31597D01*
X47152Y-31597D01*
X47190Y-31621D01*
X47209Y-31669D01*
X47209Y-31859D01*
X47190Y-31907D01*
X47152Y-31930D01*
X47076Y-31930D01*
X47038Y-31907D01*
X47019Y-31859D01*
X47019Y-31811D01*
X47209Y-31764D01*
X50371Y-31835D02*
X50371Y-31597D01*
X50504Y-32097D02*
X50371Y-31835D01*
X50238Y-32097D01*
X49952Y-31621D02*
X49990Y-31597D01*
X50066Y-31597D01*
X50104Y-31621D01*
X50123Y-31669D01*
X50123Y-31859D01*
X50104Y-31907D01*
X50066Y-31930D01*
X49990Y-31930D01*
X49952Y-31907D01*
X49933Y-31859D01*
X49933Y-31811D01*
X50123Y-31764D01*
X49704Y-31597D02*
X49742Y-31621D01*
X49761Y-31669D01*
X49761Y-32097D01*
X49495Y-31597D02*
X49533Y-31621D01*
X49552Y-31669D01*
X49552Y-32097D01*
X49285Y-31597D02*
X49323Y-31621D01*
X49342Y-31645D01*
X49361Y-31692D01*
X49361Y-31835D01*
X49342Y-31883D01*
X49323Y-31907D01*
X49285Y-31930D01*
X49228Y-31930D01*
X49190Y-31907D01*
X49171Y-31883D01*
X49152Y-31835D01*
X49152Y-31692D01*
X49171Y-31645D01*
X49190Y-31621D01*
X49228Y-31597D01*
X49285Y-31597D01*
X49019Y-31930D02*
X48942Y-31597D01*
X48866Y-31835D01*
X48790Y-31597D01*
X48714Y-31930D01*
X52142Y-32073D02*
X52180Y-32097D01*
X52238Y-32097D01*
X52295Y-32073D01*
X52333Y-32026D01*
X52352Y-31978D01*
X52371Y-31883D01*
X52371Y-31811D01*
X52352Y-31716D01*
X52333Y-31669D01*
X52295Y-31621D01*
X52238Y-31597D01*
X52200Y-31597D01*
X52142Y-31621D01*
X52123Y-31645D01*
X52123Y-31811D01*
X52200Y-31811D01*
X51952Y-31597D02*
X51952Y-31930D01*
X51952Y-31835D02*
X51933Y-31883D01*
X51914Y-31907D01*
X51876Y-31930D01*
X51838Y-31930D01*
X51552Y-31621D02*
X51590Y-31597D01*
X51666Y-31597D01*
X51704Y-31621D01*
X51723Y-31669D01*
X51723Y-31859D01*
X51704Y-31907D01*
X51666Y-31930D01*
X51590Y-31930D01*
X51552Y-31907D01*
X51533Y-31859D01*
X51533Y-31811D01*
X51723Y-31764D01*
X51209Y-31621D02*
X51247Y-31597D01*
X51323Y-31597D01*
X51361Y-31621D01*
X51380Y-31669D01*
X51380Y-31859D01*
X51361Y-31907D01*
X51323Y-31930D01*
X51247Y-31930D01*
X51209Y-31907D01*
X51190Y-31859D01*
X51190Y-31811D01*
X51380Y-31764D01*
X51019Y-31930D02*
X51019Y-31597D01*
X51019Y-31883D02*
X51000Y-31907D01*
X50961Y-31930D01*
X50904Y-31930D01*
X50866Y-31907D01*
X50847Y-31859D01*
X50847Y-31597D01*
X53828Y-31597D02*
X53961Y-31835D01*
X54057Y-31597D02*
X54057Y-32097D01*
X53904Y-32097D01*
X53866Y-32073D01*
X53847Y-32050D01*
X53828Y-32002D01*
X53828Y-31930D01*
X53847Y-31883D01*
X53866Y-31859D01*
X53904Y-31835D01*
X54057Y-31835D01*
X53504Y-31621D02*
X53542Y-31597D01*
X53619Y-31597D01*
X53657Y-31621D01*
X53676Y-31669D01*
X53676Y-31859D01*
X53657Y-31907D01*
X53619Y-31930D01*
X53542Y-31930D01*
X53504Y-31907D01*
X53485Y-31859D01*
X53485Y-31811D01*
X53676Y-31764D01*
X53142Y-31597D02*
X53142Y-32097D01*
X53142Y-31621D02*
X53180Y-31597D01*
X53257Y-31597D01*
X53295Y-31621D01*
X53314Y-31645D01*
X53333Y-31692D01*
X53333Y-31835D01*
X53314Y-31883D01*
X53295Y-31907D01*
X53257Y-31930D01*
X53180Y-31930D01*
X53142Y-31907D01*
X56190Y-31859D02*
X56133Y-31835D01*
X56114Y-31811D01*
X56095Y-31764D01*
X56095Y-31692D01*
X56114Y-31645D01*
X56133Y-31621D01*
X56171Y-31597D01*
X56323Y-31597D01*
X56323Y-32097D01*
X56190Y-32097D01*
X56152Y-32073D01*
X56133Y-32050D01*
X56114Y-32002D01*
X56114Y-31954D01*
X56133Y-31907D01*
X56152Y-31883D01*
X56190Y-31859D01*
X56323Y-31859D01*
X55866Y-31597D02*
X55904Y-31621D01*
X55923Y-31669D01*
X55923Y-32097D01*
X55542Y-31597D02*
X55542Y-31859D01*
X55561Y-31907D01*
X55600Y-31930D01*
X55676Y-31930D01*
X55714Y-31907D01*
X55542Y-31621D02*
X55580Y-31597D01*
X55676Y-31597D01*
X55714Y-31621D01*
X55733Y-31669D01*
X55733Y-31716D01*
X55714Y-31764D01*
X55676Y-31788D01*
X55580Y-31788D01*
X55542Y-31811D01*
X55180Y-31621D02*
X55219Y-31597D01*
X55295Y-31597D01*
X55333Y-31621D01*
X55352Y-31645D01*
X55371Y-31692D01*
X55371Y-31835D01*
X55352Y-31883D01*
X55333Y-31907D01*
X55295Y-31930D01*
X55219Y-31930D01*
X55180Y-31907D01*
X55009Y-31597D02*
X55009Y-32097D01*
X54971Y-31788D02*
X54857Y-31597D01*
X54857Y-31930D02*
X55009Y-31740D01*
G54D11*
X52714Y-31157D02*
X52514Y-30557D01*
X52314Y-31157D01*
X51857Y-30557D02*
X51857Y-30871D01*
X51885Y-30928D01*
X51942Y-30957D01*
X52057Y-30957D01*
X52114Y-30928D01*
X51857Y-30585D02*
X51914Y-30557D01*
X52057Y-30557D01*
X52114Y-30585D01*
X52142Y-30642D01*
X52142Y-30700D01*
X52114Y-30757D01*
X52057Y-30785D01*
X51914Y-30785D01*
X51857Y-30814D01*
X51485Y-30557D02*
X51542Y-30585D01*
X51571Y-30642D01*
X51571Y-31157D01*
X51314Y-30957D02*
X51171Y-30557D01*
X51028Y-30957D01*
X50571Y-30585D02*
X50628Y-30557D01*
X50742Y-30557D01*
X50800Y-30585D01*
X50828Y-30642D01*
X50828Y-30871D01*
X50800Y-30928D01*
X50742Y-30957D01*
X50628Y-30957D01*
X50571Y-30928D01*
X50542Y-30871D01*
X50542Y-30814D01*
X50828Y-30757D01*
G54D15*
X51000Y-36900D02*
X52200Y-36900D01*
X52200Y-36900D02*
X52200Y-37200D01*
X52200Y-37200D02*
X51000Y-37200D01*
X51000Y-37200D02*
X51000Y-36900D01*
X51000Y-39900D02*
X52200Y-39900D01*
X52200Y-39900D02*
X52200Y-40200D01*
X52200Y-40200D02*
X51000Y-40200D01*
X51000Y-40200D02*
X51000Y-39900D01*
G54D16*
X53400Y-37520D02*
X53400Y-39080D01*
X53400Y-39080D02*
X55300Y-39080D01*
X55300Y-39080D02*
X55300Y-37520D01*
X55300Y-37520D02*
X53400Y-37520D01*
X53600Y-37520D02*
X53600Y-37090D01*
X54100Y-37520D02*
X54100Y-37090D01*
X54600Y-37520D02*
X54600Y-37090D01*
X55100Y-37090D02*
X55100Y-37520D01*
X55100Y-39080D02*
X55100Y-39510D01*
X54600Y-39510D02*
X54600Y-39080D01*
X54100Y-39510D02*
X54100Y-39080D01*
X53600Y-39510D02*
X53600Y-39080D01*
X53876Y-38790D02*
G75*
G03X53876Y-38790I-186J0D01*
G74*
G01*
X53350Y-40850D02*
X53350Y-41750D01*
X53350Y-41750D02*
X54000Y-41750D01*
X54700Y-40850D02*
X55350Y-40850D01*
X55350Y-40850D02*
X55350Y-41750D01*
X55350Y-41750D02*
X54700Y-41750D01*
X54000Y-40850D02*
X53350Y-40850D01*
G54D17*
X62200Y-40200D02*
G75*
G03X62200Y-40200I-50J0D01*
G74*
G01*
X62150Y-39750D02*
X62150Y-40150D01*
X62150Y-40150D02*
X61550Y-40150D01*
X61550Y-40150D02*
X61550Y-39750D01*
X61550Y-39350D02*
X61550Y-38950D01*
X61550Y-38950D02*
X62150Y-38950D01*
X62150Y-38950D02*
X62150Y-39350D01*
X61600Y-36900D02*
G75*
G03X61600Y-36900I-50J0D01*
G74*
G01*
X61550Y-37350D02*
X61550Y-36950D01*
X61550Y-36950D02*
X62150Y-36950D01*
X62150Y-36950D02*
X62150Y-37350D01*
X62150Y-37750D02*
X62150Y-38150D01*
X62150Y-38150D02*
X61550Y-38150D01*
X61550Y-38150D02*
X61550Y-37750D01*
X61200Y-38200D02*
G75*
G03X61200Y-38200I-50J0D01*
G74*
G01*
X61150Y-37750D02*
X61150Y-38150D01*
X61150Y-38150D02*
X60550Y-38150D01*
X60550Y-38150D02*
X60550Y-37750D01*
X60550Y-37350D02*
X60550Y-36950D01*
X60550Y-36950D02*
X61150Y-36950D01*
X61150Y-36950D02*
X61150Y-37350D01*
X60200Y-38200D02*
G75*
G03X60200Y-38200I-50J0D01*
G74*
G01*
X60150Y-37750D02*
X60150Y-38150D01*
X60150Y-38150D02*
X59550Y-38150D01*
X59550Y-38150D02*
X59550Y-37750D01*
X59550Y-37350D02*
X59550Y-36950D01*
X59550Y-36950D02*
X60150Y-36950D01*
X60150Y-36950D02*
X60150Y-37350D01*
X59200Y-38200D02*
G75*
G03X59200Y-38200I-50J0D01*
G74*
G01*
X59150Y-37750D02*
X59150Y-38150D01*
X59150Y-38150D02*
X58550Y-38150D01*
X58550Y-38150D02*
X58550Y-37750D01*
X58550Y-37350D02*
X58550Y-36950D01*
X58550Y-36950D02*
X59150Y-36950D01*
X59150Y-36950D02*
X59150Y-37350D01*
X59600Y-38900D02*
G75*
G03X59600Y-38900I-50J0D01*
G74*
G01*
X59550Y-39350D02*
X59550Y-38950D01*
X59550Y-38950D02*
X60150Y-38950D01*
X60150Y-38950D02*
X60150Y-39350D01*
X60150Y-39750D02*
X60150Y-40150D01*
X60150Y-40150D02*
X59550Y-40150D01*
X59550Y-40150D02*
X59550Y-39750D01*
X61200Y-40200D02*
G75*
G03X61200Y-40200I-50J0D01*
G74*
G01*
X61150Y-39750D02*
X61150Y-40150D01*
X61150Y-40150D02*
X60550Y-40150D01*
X60550Y-40150D02*
X60550Y-39750D01*
X60550Y-39350D02*
X60550Y-38950D01*
X60550Y-38950D02*
X61150Y-38950D01*
X61150Y-38950D02*
X61150Y-39350D01*
X58600Y-38900D02*
G75*
G03X58600Y-38900I-50J0D01*
G74*
G01*
X58550Y-39350D02*
X58550Y-38950D01*
X58550Y-38950D02*
X59150Y-38950D01*
X59150Y-38950D02*
X59150Y-39350D01*
X59150Y-39750D02*
X59150Y-40150D01*
X59150Y-40150D02*
X58550Y-40150D01*
X58550Y-40150D02*
X58550Y-39750D01*
G54D18*
X56250Y-35900D02*
X56050Y-35900D01*
X56050Y-35900D02*
X56050Y-36200D01*
X56050Y-36200D02*
X56250Y-36200D01*
X56450Y-35900D02*
X56650Y-35900D01*
X56650Y-35900D02*
X56650Y-36200D01*
X56650Y-36200D02*
X56450Y-36200D01*
G54D19*
X56889Y-37261D02*
X56811Y-37261D01*
X56811Y-37261D02*
X56811Y-37339D01*
X56889Y-37339D02*
X56811Y-37339D01*
X56889Y-37261D02*
X56889Y-37339D01*
X56673Y-37025D02*
X56536Y-37025D01*
X56536Y-37025D02*
X56536Y-37123D01*
X56673Y-37123D02*
X56536Y-37123D01*
X56673Y-37025D02*
X56673Y-37123D01*
X56536Y-37025D02*
X56496Y-37025D01*
X56496Y-37025D02*
X56496Y-37496D01*
X56536Y-37496D02*
X56496Y-37496D01*
X56536Y-37025D02*
X56536Y-37496D01*
X56536Y-37516D02*
X56496Y-37516D01*
X56496Y-37516D02*
X56496Y-37575D01*
X56536Y-37575D02*
X56496Y-37575D01*
X56536Y-37516D02*
X56536Y-37575D01*
X57204Y-37025D02*
X57164Y-37025D01*
X57164Y-37025D02*
X57164Y-37496D01*
X57204Y-37496D02*
X57164Y-37496D01*
X57204Y-37025D02*
X57204Y-37496D01*
X57204Y-37516D02*
X57164Y-37516D01*
X57164Y-37516D02*
X57164Y-37575D01*
X57204Y-37575D02*
X57164Y-37575D01*
X57204Y-37516D02*
X57204Y-37575D01*
X56673Y-37025D02*
X56614Y-37025D01*
X56614Y-37025D02*
X56614Y-37123D01*
X56673Y-37123D02*
X56614Y-37123D01*
X56673Y-37025D02*
X56673Y-37123D01*
G54D20*
X56240Y-37005D02*
X57460Y-37005D01*
X57460Y-37005D02*
X57460Y-37595D01*
X57460Y-37595D02*
X56240Y-37595D01*
X56240Y-37595D02*
X56240Y-37005D01*
X57065Y-37103D02*
G75*
G03X56633Y-37104I-215J-196D01*
G74*
G01*
X57065Y-37496D02*
G75*
G03X57066Y-37104I-215J196D01*
G74*
G01*
X56634Y-37496D02*
G75*
G03X57066Y-37495I215J196D01*
G74*
G01*
X56634Y-37103D02*
G75*
G03X56633Y-37495I215J-196D01*
G74*
G01*
G54D16*
X49600Y-39750D02*
X49600Y-39670D01*
X50350Y-39150D02*
X50350Y-40950D01*
X50350Y-40950D02*
X50100Y-40950D01*
X48850Y-40310D02*
X50350Y-40310D01*
X48850Y-40440D02*
X50350Y-40440D01*
X49100Y-39150D02*
X48850Y-39150D01*
X48850Y-39150D02*
X48850Y-40950D01*
X48850Y-40950D02*
X49100Y-40950D01*
X50100Y-39150D02*
X50350Y-39150D01*
X49600Y-40000D02*
X49787Y-39750D01*
X49787Y-39750D02*
X49600Y-39750D01*
X49600Y-39750D02*
X49413Y-39750D01*
X49413Y-39750D02*
X49600Y-40000D01*
X49600Y-40000D02*
X49725Y-40000D01*
X49725Y-40000D02*
X49787Y-39938D01*
X49600Y-40000D02*
X49475Y-40000D01*
X49475Y-40000D02*
X49413Y-40062D01*
X49600Y-40000D02*
X49600Y-40437D01*
X49600Y-36750D02*
X49600Y-36670D01*
X50350Y-36150D02*
X50350Y-37950D01*
X50350Y-37950D02*
X50100Y-37950D01*
X48850Y-37310D02*
X50350Y-37310D01*
X48850Y-37440D02*
X50350Y-37440D01*
X49100Y-36150D02*
X48850Y-36150D01*
X48850Y-36150D02*
X48850Y-37950D01*
X48850Y-37950D02*
X49100Y-37950D01*
X50100Y-36150D02*
X50350Y-36150D01*
X49600Y-37000D02*
X49787Y-36750D01*
X49787Y-36750D02*
X49600Y-36750D01*
X49600Y-36750D02*
X49413Y-36750D01*
X49413Y-36750D02*
X49600Y-37000D01*
X49600Y-37000D02*
X49725Y-37000D01*
X49725Y-37000D02*
X49787Y-36938D01*
X49600Y-37000D02*
X49475Y-37000D01*
X49475Y-37000D02*
X49413Y-37062D01*
X49600Y-37000D02*
X49600Y-37437D01*
G54D21*
X56600Y-32300D02*
X46600Y-32300D01*
X56600Y-32800D02*
X46600Y-32800D01*
X56600Y-35300D02*
X46600Y-35300D01*
X46600Y-35300D02*
X46600Y-32300D01*
X56600Y-35300D02*
X56600Y-32300D01*
X52600Y-45300D02*
X52600Y-42300D01*
X58600Y-45300D02*
X58600Y-42300D01*
X52600Y-44800D02*
X58600Y-44800D01*
X52600Y-42300D02*
X58600Y-42300D01*
X52600Y-45300D02*
X58600Y-45300D01*
X58600Y-45300D02*
X58600Y-42300D01*
X64600Y-45300D02*
X64600Y-42300D01*
X58600Y-44800D02*
X64600Y-44800D01*
X58600Y-42300D02*
X64600Y-42300D01*
X58600Y-45300D02*
X64600Y-45300D01*
X46600Y-45300D02*
X46600Y-42300D01*
X52600Y-45300D02*
X52600Y-42300D01*
X46600Y-44800D02*
X52600Y-44800D01*
X46600Y-42300D02*
X52600Y-42300D01*
X46600Y-45300D02*
X52600Y-45300D01*
X56600Y-32800D02*
X60600Y-32800D01*
X56600Y-32300D02*
X56600Y-35300D01*
X56600Y-35300D02*
X60600Y-35300D01*
X60600Y-35300D02*
X60600Y-32300D01*
X60600Y-32300D02*
X56600Y-32300D01*
X60600Y-32800D02*
X64600Y-32800D01*
X60600Y-32300D02*
X60600Y-35300D01*
X60600Y-35300D02*
X64600Y-35300D01*
X64600Y-35300D02*
X64600Y-32300D01*
X64600Y-32300D02*
X60600Y-32300D01*
G54D22*
X67584Y-43742D02*
G75*
G03X67584Y-43742I-984J0D01*
G74*
G01*
X67584Y-33900D02*
G75*
G03X67584Y-33900I-984J0D01*
G74*
G01*
X64631Y-30356D02*
X64631Y-33900D01*
X64631Y-47285D02*
X68568Y-47285D01*
X68568Y-47285D02*
X68568Y-30356D01*
X64631Y-33900D02*
X64631Y-43742D01*
X64631Y-43742D02*
X64631Y-47285D01*
X66600Y-30356D02*
X64631Y-30356D01*
X66600Y-30356D02*
X68568Y-30356D01*
X45584Y-43742D02*
G75*
G03X45584Y-43742I-984J0D01*
G74*
G01*
X45584Y-33900D02*
G75*
G03X45584Y-33900I-984J0D01*
G74*
G01*
X42631Y-30356D02*
X42631Y-33900D01*
X42631Y-47285D02*
X46568Y-47285D01*
X46568Y-47285D02*
X46568Y-30356D01*
X42631Y-33900D02*
X42631Y-43742D01*
X42631Y-43742D02*
X42631Y-47285D01*
X44600Y-30356D02*
X42631Y-30356D01*
X44600Y-30356D02*
X46568Y-30356D01*
M02*
