M48
;DRILL file {Pcbnew (2013-07-07 BZR 4022)-stable} date 25/7/2559 14:55:55
;FORMAT={-:-/ absolute / inch / decimal}
FMAT,2
INCH,TZ
T1C0.020
T2C0.060
T3C0.118
%
G90
G05
M72
T1
X5.295Y-3.515
X5.295Y-4.005
X5.305Y-3.695
X5.305Y-3.755
X5.355Y-3.555
X5.435Y-3.645
X5.675Y-3.925
X5.715Y-3.825
X5.725Y-3.625
X5.725Y-3.925
X5.745Y-4.065
X5.775Y-3.605
X5.795Y-3.965
X5.815Y-3.845
X5.885Y-4.055
X5.905Y-3.565
X5.985Y-3.855
X6.035Y-3.645
X6.265Y-3.865
T2
X4.76Y-3.38
X4.76Y-4.38
X4.96Y-3.38
X4.96Y-4.38
X5.16Y-3.38
X5.16Y-4.38
X5.36Y-3.38
X5.36Y-4.38
X5.56Y-3.38
X5.56Y-4.38
X5.76Y-3.38
X5.76Y-4.38
X5.96Y-3.38
X5.96Y-4.38
X6.16Y-3.38
X6.16Y-4.38
X6.36Y-3.38
X6.36Y-4.38
T3
X4.46Y-3.39
X4.46Y-4.3743
X6.66Y-3.39
X6.66Y-4.3743
T0
M30
